# xmcd
#
# Track frame offsets:
#	150
#	23596
#	43062
#	63013
#	83538
#	97322
#	127440
#	143019
#	161647
#	179700
#	204504
#	237828
#
# Disc length: 3494 seconds
#
# Revision: 1
# Processed by: cddbd v1.5PL3 Copyright (c) Steve Scherf et al.
# Submitted via: audiograbber 1.82.01
#
DISCID=a60da40c
DTITLE=Cream - Cream Remasters - Renovating the Blues - Disc 1
DYEAR=1900
DGENRE=
TTITLE0=Cream - Stepping Out
TTITLE1=Cream - Sweet Wine
TTITLE2=Cream - Meet Me in the Bottom
TTITLE3=Cream - N.S.U.
TTITLE4=Cream - Hey Lawdy Mama
TTITLE5=Cream - Sleepy Time Time
TTITLE6=Cream - Crossroads
TTITLE7=Cream - N.S.U.
TTITLE8=Cream - Stepping Out
TTITLE9=Cream - Traintime
TTITLE10=Cream - Toad
TTITLE11=Cream - I'm So Glad
EXTD=
EXTT0=
EXTT1=
EXTT2=
EXTT3=
EXTT4=
EXTT5=
EXTT6=
EXTT7=
EXTT8=
EXTT9=
EXTT10=
EXTT11=
PLAYORDER=
